<?xml version="1.0" encoding="utf-8"?>
<!-- Generator: Adobe Illustrator 19.2.1, SVG Export Plug-In . SVG Version: 6.00 Build 0)  -->
<svg version="1.1" id="Layer_1" xmlns="http://www.w3.org/2000/svg" xmlns:xlink="http://www.w3.org/1999/xlink" x="0px" y="0px"
	 viewBox="0 0 147.2 36.8" style="enable-background:new 0 0 147.2 36.8;" xml:space="preserve">
<style type="text/css">
	.st0{fill:#E96F24;}
	.st1{fill:#9BA6AE;}
</style>
<g>
	<g>
		<g>
			<path class="st0" d="M0.1,14l0,6.9l1.1,2.6c1-0.2,1.6-0.8,1.9-1.6l0-9.2L2.4,12L0.1,14z"/>
			<path class="st0" d="M1.2,0.2L0.1,2.8l0,6.9l2.3,2L3.1,11l0-9.2C2.9,0.9,2.2,0.4,1.2,0.2z"/>
		</g>
		<g>
			<polygon class="st0" points="12.3,9.6 12.3,3.3 9.3,2.3 9.3,10.9 10,11.5 			"/>
			<path class="st0" d="M21.3,2.6L22.4,0L11.2,0c-1,0.2-1.6,0.8-1.9,1.6l3,1L21.3,2.6z"/>
			<path class="st0" d="M9.3,12.9l0,9.2c0.3,0.9,0.9,1.4,1.9,1.6l1.1-2.6l0-6.9l-2.3-2L9.3,12.9z"/>
			<path class="st0" d="M23.2,0L22,2.6l0,6.9l2.3,2l0.8-0.7l0-9.2C24.8,0.8,24.2,0.2,23.2,0z"/>
			<path class="st0" d="M13,13.8l0,2l9,7.9c1.5,0,2.5-0.4,3-1.3l-9.8-8.5L13,13.8z"/>
			<polygon class="st0" points="23.6,11.8 22,10.5 12.3,10.5 10.8,11.9 12.3,13.2 22,13.2 			"/>
		</g>
		<g>
			<polygon class="st0" points="34.5,21.1 33,22.4 34.5,23.7 42.8,23.7 44.3,22.4 42.8,21.1 			"/>
			<polygon class="st0" points="43.5,14.2 43.5,21.1 44.7,22.1 46.6,20.4 46.6,12.8 45.8,12.2 			"/>
			<polygon class="st0" points="43.5,2.6 43.5,9.6 45.8,11.5 46.6,10.9 46.6,3.3 44.7,1.6 			"/>
			<polygon class="st0" points="42.8,2.6 44.3,1.3 42.8,0 34.5,0 33,1.3 34.5,2.6 			"/>
			<polygon class="st0" points="33.8,14.2 31.5,12.2 30.8,12.9 30.8,20.4 32.6,22.1 33.8,21.1 			"/>
			<polygon class="st0" points="33.8,9.6 33.8,2.6 32.6,1.7 30.8,3.3 30.8,10.9 31.5,11.5 			"/>
		</g>
		<g>
			<path class="st0" d="M78.7,13.8l0,2l9,7.9c1.5,0,2.5-0.4,3-1.3L81,13.8L78.7,13.8z"/>
			<path class="st0" d="M87,2.6L88.1,0L76.9,0c-1,0.2-1.6,0.8-1.9,1.6l3,1L87,2.6z"/>
			<polygon class="st0" points="89.3,11.9 87.8,10.5 78,10.6 76.5,11.9 78,13.2 87.8,13.2 			"/>
			<polygon class="st0" points="78,9.6 78,3.3 75,2.3 75,10.9 75.7,11.5 			"/>
			<path class="st0" d="M75,12.9l0,9.2c0.3,0.9,0.9,1.4,1.9,1.6l1.1-2.6l0-6.9l-2.3-2L75,12.9z"/>
			<path class="st0" d="M88.9,0l-1.1,2.6l0,6.9l2.3,2l0.7-0.7l0-9.2C90.5,0.8,89.9,0.2,88.9,0z"/>
		</g>
		<g>
			<path class="st0" d="M97.8,0.2l-1.1,2.6l0,6.9l2.3,2l0.8-0.7l0-9.2C99.5,0.9,98.8,0.4,97.8,0.2z"/>
			<path class="st0" d="M96.7,14l0,6.9l1.1,2.6c1-0.2,1.6-0.8,1.9-1.6l0-9.2L99,12L96.7,14z"/>
		</g>
		<g>
			<polygon class="st0" points="109.3,9.6 109.3,3.3 106.3,2.3 106.3,10.9 107.1,11.5 			"/>
			<polygon class="st0" points="118.3,2.6 119.9,1.3 118.3,0 106.3,0 106.3,1.7 109.3,2.6 			"/>
			<polygon class="st0" points="107.8,11.9 109.3,13.2 119.1,13.2 120.6,11.8 119.1,10.5 109.3,10.5 			"/>
			<polygon class="st0" points="109.3,14.2 107.1,12.2 106.3,12.9 106.3,21.4 109.3,20.4 			"/>
			<polygon class="st0" points="119.1,2.6 119.1,9.5 121.4,11.5 122.1,10.9 122.1,3.3 120.2,1.6 			"/>
			<polygon class="st0" points="109.3,21.1 106.3,22.1 106.3,23.7 118.3,23.7 119.8,22.4 118.3,21.1 			"/>
			<polygon class="st0" points="119.1,14.2 119.1,21.1 120.2,22.1 122.1,20.4 122.1,12.8 121.4,12.2 			"/>
		</g>
		<g>
			<g>
				<path class="st0" d="M130.8,21.1l-3,1c0.2,0.9,0.9,1.4,1.9,1.6l12.4,0l-1.1-2.6L130.8,21.1z"/>
				<polygon class="st0" points="130.8,10.5 129.3,11.9 130.8,13.2 140.6,13.2 142.1,11.9 140.6,10.5 				"/>
				<polygon class="st0" points="130.8,14.2 128.5,12.2 127.8,12.9 127.8,21.4 130.8,20.4 				"/>
				<polygon class="st0" points="130.8,9.6 130.8,3.3 127.8,2.3 127.8,10.9 128.5,11.5 				"/>
				<path class="st0" d="M140.9,2.6l1.1-2.6l-12.4,0c-1,0.2-1.6,0.8-1.9,1.7l3,1L140.9,2.6z"/>
			</g>
			<path class="st0" d="M143.2,21.7l-0.7,0l0-0.4l1.8,0l0,0.4l-0.7,0l0,2.1l-0.4,0L143.2,21.7z M144.7,21.3l0.6,0l0.7,1.9l0.7-1.8
				l0.6,0l0,2.4l-0.4,0l0-2.1h0l-0.7,2l-0.2,0l-0.7-2.1h0l0,2.1l-0.4,0L144.7,21.3z"/>
		</g>
		<g>
			<path class="st0" d="M68.1,22.1v-9.2l-0.8-0.7l-2.3,2v6.9l1.1,2.6C67.2,23.5,67.8,22.9,68.1,22.1z"/>
			<polygon class="st0" points="56,3 56,5 61.7,9.9 64.3,9.9 64.3,8.2 58.3,3 			"/>
			<path class="st0" d="M52.3,12.9l0,9.2c0.3,0.9,0.9,1.4,1.9,1.6l1.1-2.6l0-6.9l-2.3-2L52.3,12.9z"/>
			<path class="st0" d="M52.3,2l0,9.2l0.8,0.7l2.3-2l0-6.9l-1.1-2.6C53.1,0.6,52.5,1.1,52.3,2z"/>
			<polygon class="st0" points="67.3,11.9 68.1,11.2 68.1,3.3 65,3.3 65,9.9 			"/>
			<path class="st0" d="M71.1,2.3L73,1.6c-0.3-0.9-0.8-1.4-1.8-1.6l-9.5,0c-0.8,0.2-1.4,1-1.7,1.6l2.8,1l7,0L71.1,2.3z"/>
		</g>
	</g>
	<g>
		<path class="st1" d="M41.1,32.4l-0.2,1H43l-0.2,1.4h-2.1l-0.3,1.9h-1.6l1-5.8h1.6h3.3l-0.3,1.4H41.1z"/>
		<path class="st1" d="M51.9,31l-1,5.8h-1.6l1-5.8H51.9z"/>
		<path class="st1" d="M62.6,32.4h-1.9l-0.3,1.4L60,36.7h-1.6l0.5-2.9l0.3-1.4h-1.9l0.3-1.4H61h1.9L62.6,32.4z"/>
		<path class="st1" d="M74,31l-1,5.8h-1.3l-2-3.3l-0.6,3.3h-1.6l1-5.8h1.3l2,3.3l0.6-3.3H74z"/>
		<path class="st1" d="M81.5,32.4l-0.1,0.8h2l-0.2,1.3h-2L81,35.3h3.2L84,36.7h-4.3h-0.4l1-5.8h1.6h3.2l-0.3,1.4H81.5z"/>
		<path class="st1" d="M89.6,36l0.8-1.2c0.6,0.5,1.3,0.7,2,0.7c0.6,0,1.1-0.1,1.1-0.4c0.1-0.3-0.2-0.4-1.1-0.5
			c-1.2-0.2-2.4-0.5-2.2-1.9c0.2-1.2,1.4-1.8,2.7-1.8c1.3,0,2.1,0.6,2.4,1.4l-1.3,0.5c-0.1-0.4-0.6-0.6-1.1-0.6
			c-0.8,0-1.1,0.2-1.2,0.5c0,0.3,0.2,0.4,1.3,0.5c1.1,0.2,2.3,0.5,2,1.8c-0.2,1.2-1.3,1.8-2.9,1.8C91.2,36.8,90.3,36.6,89.6,36z"/>
		<path class="st1" d="M100.3,36l0.8-1.2c0.6,0.5,1.3,0.7,2,0.7c0.6,0,1.1-0.1,1.1-0.4c0.1-0.3-0.2-0.4-1.1-0.5
			c-1.2-0.2-2.4-0.5-2.2-1.9c0.2-1.2,1.4-1.8,2.7-1.8c1.3,0,2.1,0.6,2.4,1.4l-1.3,0.5c-0.1-0.4-0.6-0.6-1.1-0.6
			c-0.8,0-1.1,0.2-1.2,0.5c0,0.3,0.2,0.4,1.3,0.5c1.1,0.2,2.3,0.5,2,1.8c-0.2,1.2-1.3,1.8-2.9,1.8C102,36.8,101.1,36.6,100.3,36z"/>
	</g>
	<polygon class="st1" points="31.6,34.4 0,34.4 0.5,33 32.1,33 	"/>
	<polygon class="st1" points="146,34.4 112.8,34.4 113.3,33 146.4,33 	"/>
</g>
</svg>
